<svg width="85" height="35" viewBox="0 0 85 35" fill="none" xmlns="http://www.w3.org/2000/svg">
<path d="M14.5 34.412C14.212 34.436 13.924 34.448 13.636 34.448C13.348 34.448 13.06 34.448 12.772 34.448C12.052 34.448 11.212 34.412 10.252 34.34C9.316 34.292 8.368 34.172 7.408 33.98C6.472 33.788 5.572 33.524 4.708 33.188C3.868 32.852 3.184 32.408 2.656 31.856C2.416 31.592 2.212 31.316 2.044 31.028C1.9 30.716 1.828 30.392 1.828 30.056C1.828 29.552 1.96 29.096 2.224 28.688C2.104 28.448 1.996 28.172 1.9 27.86C1.828 27.524 1.792 27.224 1.792 26.96C1.792 26.744 1.828 26.528 1.9 26.312C2.02 26.576 2.152 26.828 2.296 27.068C2.464 27.308 2.644 27.536 2.836 27.752C3.532 28.544 4.324 29.18 5.212 29.66C6.1 30.116 7.036 30.464 8.02 30.704C9.004 30.92 10.012 31.064 11.044 31.136C12.076 31.208 13.084 31.244 14.068 31.244C14.62 31.244 15.292 31.232 16.084 31.208C16.9 31.16 17.728 31.088 18.568 30.992C19.432 30.872 20.236 30.728 20.98 30.56C21.748 30.368 22.348 30.128 22.78 29.84L22.816 29.912C22.816 30.2 22.588 30.452 22.132 30.668C21.676 30.884 21.088 31.076 20.368 31.244C19.648 31.412 18.856 31.556 17.992 31.676C17.152 31.796 16.324 31.904 15.508 32C14.716 32.072 13.996 32.12 13.348 32.144C12.724 32.192 12.28 32.216 12.016 32.216H12.34C12.964 32.216 13.768 32.192 14.752 32.144C15.76 32.12 16.78 32.048 17.812 31.928C18.868 31.808 19.852 31.64 20.764 31.424C21.7 31.184 22.42 30.884 22.924 30.524C22.708 30.884 22.324 31.196 21.772 31.46C21.244 31.7 20.656 31.916 20.008 32.108C19.36 32.3 18.712 32.444 18.064 32.54C17.44 32.66 16.936 32.756 16.552 32.828C16.312 32.852 16.072 32.876 15.832 32.9C15.592 32.948 15.352 32.984 15.112 33.008C14.848 33.032 14.584 33.044 14.32 33.044C14.056 33.044 13.792 33.044 13.528 33.044C11.968 33.044 10.408 32.912 8.848 32.648C7.288 32.384 5.752 32.036 4.24 31.604C4.888 31.892 5.584 32.144 6.328 32.36C7.096 32.576 7.876 32.756 8.668 32.9C9.484 33.044 10.288 33.152 11.08 33.224C11.896 33.296 12.652 33.332 13.348 33.332C13.996 33.332 14.764 33.284 15.652 33.188C16.564 33.116 17.476 32.996 18.388 32.828C19.3 32.66 20.164 32.432 20.98 32.144C21.82 31.856 22.504 31.52 23.032 31.136C23.176 31.016 23.332 30.884 23.5 30.74C23.668 30.572 23.752 30.392 23.752 30.2C23.752 29.936 23.668 29.708 23.5 29.516C23.332 29.324 23.152 29.168 22.96 29.048C22.792 28.832 22.6 28.688 22.384 28.616C21.592 28.208 20.776 27.872 19.936 27.608C19.096 27.32 18.256 27.032 17.416 26.744C16.048 26.264 14.584 25.748 13.024 25.196C11.488 24.62 10 23.96 8.56 23.216C7.12 22.448 5.8 21.56 4.6 20.552C3.4 19.52 2.452 18.308 1.756 16.916C1.18 15.764 0.892 14.516 0.892 13.172C0.892 11.708 1.216 10.376 1.864 9.176C2.512 7.976 3.364 6.908 4.42 5.972C5.5 5.036 6.724 4.22 8.092 3.524C9.484 2.828 10.912 2.252 12.376 1.796C13.84 1.34 15.292 1.004 16.732 0.787998C18.172 0.571998 19.48 0.463998 20.656 0.463998C21.256 0.463998 21.892 0.487999 22.564 0.536C23.26 0.583999 23.944 0.679998 24.616 0.823998C25.312 0.943998 25.972 1.124 26.596 1.364C27.244 1.58 27.82 1.856 28.324 2.192C28.516 2.336 28.732 2.54 28.972 2.804C29.236 3.044 29.38 3.296 29.404 3.56C29.02 3.224 28.48 2.924 27.784 2.66C27.088 2.396 26.356 2.168 25.588 1.976C24.82 1.784 24.064 1.64 23.32 1.544C22.576 1.448 21.952 1.4 21.448 1.4C20.152 1.4 18.856 1.484 17.56 1.652C16.288 1.796 15.016 2.036 13.744 2.372C12.928 2.588 12.064 2.876 11.152 3.236C10.264 3.572 9.388 3.968 8.524 4.424C7.66 4.856 6.832 5.348 6.04 5.9C5.248 6.428 4.564 7.004 3.988 7.628C4.972 6.764 6.148 5.996 7.516 5.324C8.908 4.652 10.36 4.1 11.872 3.668C13.408 3.212 14.944 2.876 16.48 2.66C18.016 2.42 19.432 2.3 20.728 2.3C21.28 2.3 21.844 2.312 22.42 2.336C22.996 2.36 23.56 2.42 24.112 2.516C24.52 2.588 25.036 2.708 25.66 2.876C26.284 3.02 26.896 3.224 27.496 3.488C28.096 3.752 28.6 4.076 29.008 4.46C29.44 4.844 29.656 5.3 29.656 5.828C29.656 6.236 29.584 6.632 29.44 7.016C29.32 7.376 29.236 7.76 29.188 8.168C28.66 7.4 28.024 6.764 27.28 6.26C26.56 5.756 25.78 5.348 24.94 5.036C24.124 4.724 23.26 4.508 22.348 4.388C21.46 4.268 20.572 4.208 19.684 4.208C17.188 4.208 14.764 4.532 12.412 5.18C10.084 5.828 7.828 6.728 5.644 7.88C5.596 7.928 5.536 7.964 5.464 7.988C5.416 7.988 5.368 8.012 5.32 8.06C5.368 8.012 5.416 7.988 5.464 7.988C5.536 7.964 5.596 7.928 5.644 7.88C7.756 6.848 9.94 6.044 12.196 5.468C14.476 4.868 16.804 4.568 19.18 4.568C20.14 4.568 21.112 4.628 22.096 4.748C23.08 4.868 24.016 5.096 24.904 5.432C25.792 5.768 26.608 6.236 27.352 6.836C28.096 7.412 28.708 8.168 29.188 9.104C29.308 9.32 29.404 9.548 29.476 9.788C29.572 10.028 29.62 10.28 29.62 10.544C29.62 11.24 29.38 11.756 28.9 12.092C28.42 12.428 27.856 12.608 27.208 12.632C27.616 12.416 27.976 12.116 28.288 11.732C28.6 11.348 28.756 10.916 28.756 10.436C28.756 10.1 28.684 9.788 28.54 9.5C28.42 9.188 28.252 8.9 28.036 8.636C27.82 8.372 27.58 8.132 27.316 7.916C27.052 7.676 26.8 7.472 26.56 7.304C25.456 6.488 24.196 5.948 22.78 5.684C21.388 5.42 20.02 5.288 18.676 5.288C17.452 5.288 16.216 5.36 14.968 5.504C13.72 5.648 12.508 5.888 11.332 6.224C10.732 6.392 10.084 6.62 9.388 6.908C8.716 7.196 8.056 7.544 7.408 7.952C6.76 8.336 6.16 8.78 5.608 9.284C5.056 9.764 4.636 10.292 4.348 10.868C4.084 11.372 3.892 11.936 3.772 12.56C3.676 13.16 3.628 13.748 3.628 14.324C3.628 14.852 3.664 15.392 3.736 15.944C3.832 16.496 3.976 17.012 4.168 17.492C4.408 18.092 4.828 18.692 5.428 19.292C6.028 19.892 6.7 20.468 7.444 21.02C8.188 21.548 8.944 22.028 9.712 22.46C10.504 22.868 11.188 23.18 11.764 23.396C13.252 23.972 14.728 24.548 16.192 25.124C17.656 25.676 19.12 26.24 20.584 26.816C19.648 26.432 18.712 26.048 17.776 25.664C16.84 25.256 15.916 24.848 15.004 24.44C14.116 24.032 13.084 23.552 11.908 23C10.732 22.424 9.604 21.776 8.524 21.056C7.444 20.312 6.508 19.484 5.716 18.572C4.924 17.66 4.456 16.664 4.312 15.584C4.6 16.472 5.152 17.324 5.968 18.14C6.808 18.956 7.744 19.724 8.776 20.444C9.832 21.14 10.9 21.764 11.98 22.316C13.084 22.868 14.044 23.324 14.86 23.684C14.14 23.276 13.42 22.868 12.7 22.46C12.004 22.028 11.308 21.584 10.612 21.128C10.012 20.744 9.352 20.312 8.632 19.832C7.912 19.328 7.24 18.788 6.616 18.212C5.992 17.612 5.464 16.964 5.032 16.268C4.624 15.572 4.42 14.828 4.42 14.036C4.876 14.612 5.536 15.212 6.4 15.836C7.288 16.46 8.272 17.096 9.352 17.744C10.456 18.392 11.632 19.04 12.88 19.688C14.128 20.312 15.352 20.924 16.552 21.524C17.752 22.124 18.892 22.7 19.972 23.252C21.052 23.78 21.964 24.26 22.708 24.692C22.924 24.812 23.188 24.968 23.5 25.16C23.812 25.328 24.124 25.52 24.436 25.736C24.748 25.952 25.036 26.168 25.3 26.384C25.588 26.6 25.804 26.804 25.948 26.996C26.308 27.5 26.488 28.028 26.488 28.58C26.488 29.06 26.356 29.516 26.092 29.948C25.852 30.38 25.528 30.776 25.12 31.136C24.736 31.472 24.316 31.772 23.86 32.036C23.428 32.324 23.008 32.552 22.6 32.72C21.328 33.272 19.996 33.68 18.604 33.944C17.236 34.232 15.868 34.4 14.5 34.448V34.412ZM38.0977 28.364C37.9297 28.172 37.7857 27.908 37.6657 27.572C37.5697 27.212 37.4857 26.84 37.4137 26.456C37.3417 26.072 37.2937 25.7 37.2697 25.34C37.2457 24.956 37.2337 24.632 37.2337 24.368C37.2337 23.672 37.2577 22.976 37.3057 22.28C37.3537 21.56 37.4137 20.852 37.4857 20.156C37.3657 20.924 37.2697 21.704 37.1977 22.496C37.1257 23.288 37.0897 24.08 37.0897 24.872C37.0897 25.016 37.1017 25.28 37.1257 25.664C37.1497 26.048 37.1977 26.444 37.2697 26.852C37.3417 27.236 37.4377 27.584 37.5577 27.896C37.7017 28.208 37.8817 28.364 38.0977 28.364ZM36.4777 26.132C36.4777 26.324 36.5257 26.552 36.6217 26.816C36.7417 27.056 36.8737 27.236 37.0177 27.356C36.9217 27.236 36.8497 27.056 36.8017 26.816C36.7537 26.552 36.7177 26.288 36.6937 26.024C36.6697 25.76 36.6457 25.496 36.6217 25.232C36.6217 24.968 36.6217 24.752 36.6217 24.584C36.6217 24.248 36.6217 23.912 36.6217 23.576C36.6457 23.24 36.6817 22.904 36.7297 22.568C36.5617 23.384 36.4777 24.272 36.4777 25.232V26.132ZM38.4217 21.956C38.3977 22.172 38.3857 22.388 38.3857 22.604C38.3857 22.82 38.3857 23.036 38.3857 23.252C38.3857 23.516 38.3977 23.888 38.4217 24.368C38.4457 24.824 38.4817 25.304 38.5297 25.808C38.6017 26.288 38.6857 26.744 38.7817 27.176C38.9017 27.584 39.0577 27.884 39.2497 28.076C38.9857 28.028 38.7697 27.8 38.6017 27.392C38.4577 26.96 38.3497 26.48 38.2777 25.952C38.2057 25.424 38.1577 24.908 38.1337 24.404C38.1097 23.9 38.0977 23.54 38.0977 23.324C38.0977 22.436 38.1217 21.56 38.1697 20.696C38.2417 19.832 38.3257 18.956 38.4217 18.068C38.2537 19.124 38.1097 20.168 37.9897 21.2C37.8937 22.232 37.8457 23.276 37.8457 24.332C37.8457 24.548 37.8457 24.86 37.8457 25.268C37.8697 25.676 37.9057 26.096 37.9537 26.528C38.0257 26.936 38.1097 27.32 38.2057 27.68C38.3257 28.016 38.4697 28.256 38.6377 28.4C38.5417 28.424 38.4457 28.448 38.3497 28.472C38.2777 28.496 38.1937 28.508 38.0977 28.508C37.8817 28.508 37.7377 28.472 37.6657 28.4C37.5937 28.304 37.5217 28.208 37.4497 28.112C37.4017 27.992 37.3297 27.896 37.2337 27.824C37.1617 27.728 37.0057 27.68 36.7657 27.68C36.5737 27.68 36.3937 27.692 36.2257 27.716C36.0817 27.716 35.9137 27.716 35.7217 27.716C35.1937 27.716 34.8457 27.5 34.6777 27.068C34.5337 26.612 34.4617 26.168 34.4617 25.736C34.4617 25.208 34.4857 24.692 34.5337 24.188C34.5817 23.66 34.6417 23.132 34.7137 22.604C34.4017 23.924 34.0417 25.268 33.6337 26.636C33.5617 26.876 33.4537 27.152 33.3097 27.464C33.1897 27.752 33.0337 28.04 32.8417 28.328C32.6737 28.592 32.4577 28.82 32.1937 29.012C31.9537 29.18 31.6897 29.264 31.4017 29.264C31.2817 29.264 31.1737 29.252 31.0777 29.228C31.0057 29.204 30.9097 29.168 30.7897 29.12C30.4537 28.976 30.2257 28.832 30.1057 28.688C29.9857 28.52 29.8657 28.352 29.7457 28.184C29.6497 28.016 29.4937 27.86 29.2777 27.716C29.0857 27.548 28.7377 27.392 28.2337 27.248C27.9697 27.176 27.7537 27.032 27.5857 26.816C27.4417 26.6 27.3337 26.348 27.2617 26.06C27.1897 25.772 27.1417 25.484 27.1177 25.196C27.0937 24.884 27.0817 24.62 27.0817 24.404C27.0817 23.468 27.1777 22.484 27.3697 21.452H27.4057C27.4537 20.852 27.5257 20.264 27.6217 19.688C27.7177 19.088 27.7657 18.476 27.7657 17.852C27.7657 17.588 27.7417 17.312 27.6937 17.024C27.6697 16.712 27.5857 16.448 27.4417 16.232C27.6097 16.424 27.7177 16.712 27.7657 17.096C27.8377 17.456 27.8737 17.768 27.8737 18.032C27.8737 18.152 27.8617 18.404 27.8377 18.788C27.8137 19.148 27.7777 19.532 27.7297 19.94C27.6817 20.348 27.6337 20.72 27.5857 21.056C27.5617 21.392 27.5257 21.596 27.4777 21.668C27.4057 22.124 27.3577 22.58 27.3337 23.036C27.3097 23.468 27.2977 23.912 27.2977 24.368C27.2977 24.44 27.2977 24.56 27.2977 24.728C27.3217 24.896 27.3457 25.076 27.3697 25.268C27.3937 25.46 27.4297 25.628 27.4777 25.772C27.5257 25.916 27.5737 26 27.6217 26.024C27.5257 25.712 27.4657 25.4 27.4417 25.088C27.4177 24.776 27.4057 24.452 27.4057 24.116C27.4057 22.988 27.5257 21.884 27.7657 20.804C28.0057 19.7 28.1257 18.584 28.1257 17.456C28.1257 17.336 28.1137 17.192 28.0897 17.024C28.0657 16.832 28.0297 16.664 27.9817 16.52C27.9337 16.352 27.8497 16.22 27.7297 16.124C27.6337 16.004 27.5017 15.944 27.3337 15.944C27.1657 15.944 27.0457 16.004 26.9737 16.124V16.052C26.9737 15.86 27.0457 15.728 27.1897 15.656C27.3097 15.56 27.4537 15.512 27.6217 15.512C27.8137 15.512 27.9937 15.548 28.1617 15.62C28.3537 15.692 28.5457 15.728 28.7377 15.728C29.0017 15.728 29.2657 15.704 29.5297 15.656C29.7937 15.584 30.0577 15.548 30.3217 15.548C30.7297 15.548 31.0057 15.632 31.1497 15.8C31.3177 15.968 31.4017 16.256 31.4017 16.664C31.4017 16.784 31.3897 16.892 31.3657 16.988C31.3657 17.084 31.3657 17.192 31.3657 17.312C31.2937 18.32 31.1857 19.328 31.0417 20.336C30.9217 21.344 30.8617 22.352 30.8617 23.36C30.8617 23.576 30.8737 23.84 30.8977 24.152C30.9457 24.44 31.0057 24.74 31.0777 25.052C31.1497 25.364 31.2457 25.652 31.3657 25.916C31.4857 26.18 31.6297 26.384 31.7977 26.528C31.7497 26.648 31.7017 26.768 31.6537 26.888C31.6057 26.984 31.5457 27.092 31.4737 27.212C31.1617 26.876 30.9217 26.408 30.7537 25.808C30.5857 25.208 30.4657 24.572 30.3937 23.9C30.3217 23.228 30.2737 22.568 30.2497 21.92C30.2497 21.272 30.2497 20.72 30.2497 20.264C30.2257 20.576 30.2137 20.876 30.2137 21.164C30.2137 21.452 30.2137 21.752 30.2137 22.064C30.2137 22.424 30.2257 22.856 30.2497 23.36C30.2737 23.864 30.3217 24.368 30.3937 24.872C30.4657 25.376 30.5737 25.856 30.7177 26.312C30.8857 26.744 31.1017 27.092 31.3657 27.356C31.2697 27.5 31.1377 27.572 30.9697 27.572C30.8257 27.572 30.6817 27.476 30.5377 27.284C30.3937 27.092 30.2617 26.864 30.1417 26.6C30.0457 26.336 29.9617 26.072 29.8897 25.808C29.8177 25.544 29.7577 25.352 29.7097 25.232C29.5897 24.752 29.5177 24.272 29.4937 23.792C29.4697 23.288 29.4577 22.796 29.4577 22.316C29.4577 21.548 29.4817 20.768 29.5297 19.976C29.6017 19.184 29.6737 18.404 29.7457 17.636C29.6017 18.572 29.4697 19.508 29.3497 20.444C29.2537 21.38 29.2057 22.328 29.2057 23.288C29.2057 23.624 29.2177 23.96 29.2417 24.296C29.2897 24.632 29.3377 24.968 29.3857 25.304C29.4097 25.448 29.4697 25.676 29.5657 25.988C29.6857 26.276 29.8177 26.576 29.9617 26.888C30.1057 27.176 30.2737 27.44 30.4657 27.68C30.6577 27.896 30.8377 28.004 31.0057 28.004C31.2217 28.004 31.4497 27.812 31.6897 27.428C31.9297 27.044 32.1697 26.564 32.4097 25.988C32.6737 25.388 32.9257 24.728 33.1657 24.008C33.4057 23.288 33.6217 22.604 33.8137 21.956C34.0057 21.284 34.1737 20.696 34.3177 20.192C34.4617 19.664 34.5577 19.292 34.6057 19.076C34.6297 19.004 34.6897 18.812 34.7857 18.5C34.8817 18.164 34.9777 17.816 35.0737 17.456C35.1937 17.096 35.3017 16.772 35.3977 16.484C35.4937 16.196 35.5537 16.04 35.5777 16.016C35.7457 15.968 35.9617 15.92 36.2257 15.872C36.5137 15.8 36.7417 15.764 36.9097 15.764V15.728H37.3777C37.9057 15.728 38.2657 15.812 38.4577 15.98C38.6737 16.148 38.7817 16.508 38.7817 17.06C38.7817 17.876 38.7217 18.692 38.6017 19.508C38.5057 20.324 38.4337 21.14 38.3857 21.956H38.4217ZM43.0258 21.272C43.1698 20.504 43.3138 19.748 43.4578 19.004C43.6018 18.236 43.7338 17.468 43.8538 16.7C43.3738 18.548 42.9538 20.348 42.5938 22.1C42.2578 23.828 42.0898 25.652 42.0898 27.572C42.0898 27.836 42.1018 28.16 42.1258 28.544C42.1498 28.928 42.1858 29.312 42.2338 29.696C42.2818 30.08 42.3538 30.452 42.4498 30.812C42.5458 31.148 42.6778 31.424 42.8458 31.64C42.6298 31.16 42.4858 30.596 42.4138 29.948C42.3418 29.276 42.3058 28.664 42.3058 28.112C42.3058 26.96 42.3778 25.82 42.5218 24.692C42.6658 23.54 42.8458 22.388 43.0618 21.236L43.0258 21.272ZM42.0898 31.136H42.0538C41.9098 31.04 41.7898 30.86 41.6938 30.596C41.5978 30.332 41.5258 30.056 41.4778 29.768C41.4298 29.456 41.3938 29.156 41.3698 28.868C41.3698 28.556 41.3698 28.316 41.3698 28.148C41.3698 27.908 41.3698 27.68 41.3698 27.464C41.3698 27.224 41.3938 26.984 41.4418 26.744C41.3458 27.08 41.2858 27.416 41.2618 27.752C41.2378 28.064 41.2258 28.388 41.2258 28.724C41.2258 28.892 41.2378 29.096 41.2618 29.336C41.2858 29.576 41.3218 29.816 41.3698 30.056C41.4178 30.296 41.4898 30.524 41.5858 30.74C41.7058 30.932 41.8498 31.064 42.0178 31.136H42.0898ZM38.5978 10.94C39.1498 10.94 39.6778 10.916 40.1818 10.868C40.7098 10.82 41.2378 10.748 41.7658 10.652C41.2858 10.7 40.8058 10.736 40.3258 10.76C39.8698 10.784 39.4018 10.796 38.9218 10.796C38.4898 10.796 38.0578 10.784 37.6258 10.76C37.1938 10.736 36.7618 10.7 36.3298 10.652L36.2938 10.688C36.3178 10.76 36.4378 10.808 36.6538 10.832C36.8698 10.856 37.1098 10.88 37.3738 10.904C37.6378 10.928 37.8898 10.94 38.1298 10.94C38.3698 10.94 38.5258 10.94 38.5978 10.94ZM48.6778 10.616C48.1978 10.712 47.7058 10.796 47.2018 10.868C46.6978 10.916 46.2058 10.964 45.7258 11.012C45.7258 12.524 45.6058 14.036 45.3658 15.548C45.1498 17.036 44.8978 18.536 44.6098 20.048C44.3458 21.536 44.0938 23.024 43.8538 24.512C43.6378 26 43.5298 27.5 43.5298 29.012C43.5298 29.468 43.5418 29.9 43.5658 30.308C43.6138 30.716 43.6978 31.136 43.8178 31.568C43.8658 31.784 43.9378 31.964 44.0338 32.108C44.1298 32.252 44.3098 32.324 44.5738 32.324C44.6938 32.324 44.8138 32.3 44.9338 32.252C45.0778 32.204 45.2098 32.156 45.3298 32.108C45.2338 32.3 45.0898 32.468 44.8978 32.612C44.7058 32.756 44.5018 32.828 44.2858 32.828C44.0458 32.828 43.8538 32.792 43.7098 32.72C43.5658 32.648 43.3978 32.552 43.2058 32.432C43.1098 32.384 43.0258 32.348 42.9538 32.324C42.9058 32.324 42.8218 32.312 42.7018 32.288C42.1978 32.216 41.8018 32.048 41.5138 31.784C41.2258 31.52 41.0098 31.208 40.8658 30.848C40.7218 30.464 40.6378 30.056 40.6138 29.624C40.5898 29.192 40.5778 28.76 40.5778 28.328C40.5778 26.648 40.7098 24.992 40.9738 23.36C41.2618 21.728 41.5138 20.084 41.7298 18.428C41.5618 19.268 41.3698 20.144 41.1538 21.056C40.9378 21.968 40.7458 22.892 40.5778 23.828C40.4098 24.764 40.2658 25.688 40.1458 26.6C40.0258 27.512 39.9658 28.4 39.9658 29.264C39.9658 29.432 39.9658 29.648 39.9658 29.912C39.9898 30.176 40.0258 30.44 40.0738 30.704C40.1218 30.968 40.1818 31.22 40.2538 31.46C40.3258 31.7 40.4098 31.88 40.5058 32C40.3378 31.856 40.1938 31.664 40.0738 31.424C39.9538 31.16 39.8578 30.884 39.7858 30.596C39.7138 30.284 39.6538 29.984 39.6058 29.696C39.5818 29.408 39.5698 29.156 39.5698 28.94C39.5698 28.1 39.6418 27.272 39.7858 26.456C39.9298 25.616 40.0738 24.788 40.2178 23.972C40.5778 21.908 40.9618 19.868 41.3698 17.852C41.7778 15.836 42.0538 13.772 42.1978 11.66C42.4378 11.612 42.6658 11.552 42.8818 11.48C43.0978 11.384 43.3258 11.288 43.5658 11.192C42.7258 11.264 41.8978 11.324 41.0818 11.372C40.2658 11.42 39.4378 11.444 38.5978 11.444C38.4538 11.444 38.2138 11.444 37.8778 11.444C37.5418 11.444 37.1938 11.432 36.8338 11.408C36.4498 11.36 36.1138 11.3 35.8258 11.228C35.5138 11.156 35.3338 11.06 35.2858 10.94C35.2378 10.82 35.2018 10.688 35.1778 10.544C35.1298 10.4 35.0818 10.268 35.0338 10.148C35.7298 10.244 36.4378 10.304 37.1578 10.328C37.8778 10.328 38.5858 10.328 39.2818 10.328C41.7778 10.328 44.2378 10.172 46.6618 9.86C49.1098 9.548 51.5698 9.224 54.0418 8.888C53.9698 8.864 53.8618 8.852 53.7178 8.852C52.9018 8.852 52.0738 8.912 51.2338 9.032C50.4178 9.128 49.6018 9.236 48.7858 9.356C45.3778 9.788 41.9338 10.004 38.4538 10.004C37.8778 10.004 37.2778 9.98 36.6538 9.932C36.0058 9.884 35.4418 9.74 34.9618 9.5C34.7698 9.452 34.5658 9.284 34.3498 8.996C34.1098 8.708 33.9898 8.468 33.9898 8.276C33.9898 8.084 34.0618 7.928 34.2058 7.808C34.3258 7.664 34.4818 7.556 34.6738 7.484C34.8418 7.412 35.0338 7.364 35.2498 7.34C35.4418 7.316 35.6098 7.292 35.7538 7.268C35.5618 7.316 35.3578 7.412 35.1418 7.556C34.9018 7.676 34.7818 7.868 34.7818 8.132C34.7818 8.228 34.7938 8.3 34.8178 8.348V8.42C34.9618 8.66 35.2618 8.864 35.7178 9.032C36.1498 9.176 36.6418 9.284 37.1938 9.356C37.7218 9.428 38.2378 9.476 38.7418 9.5C39.2458 9.524 39.6418 9.536 39.9298 9.536C40.7938 9.536 41.6578 9.512 42.5218 9.464C43.3858 9.392 44.2498 9.332 45.1138 9.284C44.1058 9.212 43.0978 9.176 42.0898 9.176C42.0898 9.104 42.0658 8.984 42.0178 8.816C41.9698 8.648 41.9098 8.48 41.8378 8.312C41.7658 8.12 41.6818 7.964 41.5858 7.844C41.5138 7.7 41.4178 7.628 41.2978 7.628C41.2738 7.628 41.2138 7.652 41.1178 7.7C41.1658 7.484 41.2858 7.316 41.4778 7.196C41.6698 7.076 41.8738 7.016 42.0898 7.016C42.2338 7.016 42.3538 7.04 42.4498 7.088C42.5458 7.136 42.6298 7.196 42.7018 7.268C42.7978 7.316 42.8938 7.364 42.9898 7.412C43.0858 7.46 43.2178 7.484 43.3858 7.484C43.5538 7.484 43.7218 7.472 43.8898 7.448C44.0578 7.4 44.2258 7.376 44.3938 7.376C44.6338 7.376 44.8258 7.448 44.9698 7.592C45.1138 7.712 45.2218 7.868 45.2938 8.06C45.3898 8.228 45.4618 8.42 45.5098 8.636C45.5578 8.852 45.5938 9.056 45.6178 9.248C46.6018 9.128 47.5738 9.02 48.5338 8.924C49.4938 8.804 50.4658 8.684 51.4498 8.564C51.7858 8.516 52.1098 8.468 52.4218 8.42C52.7578 8.372 53.0938 8.348 53.4298 8.348C53.9098 8.348 54.1978 8.468 54.2938 8.708C54.3898 8.924 54.5338 9.2 54.7258 9.536C54.5338 9.44 54.3058 9.392 54.0418 9.392C53.8738 9.392 53.7658 9.404 53.7178 9.428C52.6858 9.548 51.6658 9.692 50.6578 9.86C49.6498 10.028 48.6418 10.184 47.6338 10.328C48.5458 10.208 49.4458 10.1 50.3338 10.004C51.2218 9.884 52.1218 9.764 53.0338 9.644C53.1778 9.62 53.3218 9.608 53.4658 9.608C53.6338 9.584 53.7898 9.572 53.9338 9.572C54.2938 9.572 54.6298 9.608 54.9418 9.68C55.0378 9.8 55.1338 9.884 55.2298 9.932C55.3258 9.98 55.3738 10.1 55.3738 10.292C55.2058 10.172 54.9898 10.076 54.7258 10.004C54.4858 9.932 54.2698 9.896 54.0778 9.896C53.3578 9.896 52.6378 9.956 51.9178 10.076C51.1978 10.172 50.4778 10.28 49.7578 10.4C49.5658 10.448 49.3618 10.496 49.1458 10.544C48.9538 10.568 48.7618 10.58 48.5698 10.58L48.6778 10.616ZM45.4459 25.268C45.4219 24.692 45.5059 24.044 45.6979 23.324C45.8899 22.604 46.1659 21.872 46.5259 21.128C46.9099 20.384 47.3539 19.664 47.8579 18.968C48.3859 18.248 48.9379 17.612 49.5139 17.06C50.1139 16.484 50.7259 16.016 51.3499 15.656C51.9979 15.296 52.6339 15.104 53.2579 15.08C53.6179 15.08 53.9659 15.116 54.3019 15.188C54.6619 15.26 54.9979 15.416 55.3099 15.656C55.0699 15.488 54.7699 15.392 54.4099 15.368C54.0499 15.344 53.7379 15.332 53.4739 15.332C52.6579 15.38 51.8179 15.704 50.9539 16.304C50.1139 16.904 49.3459 17.636 48.6499 18.5C47.9539 19.34 47.3659 20.24 46.8859 21.2C46.4299 22.136 46.1659 22.976 46.0939 23.72C46.2859 23.12 46.5859 22.4 46.9939 21.56C47.4259 20.696 47.9299 19.868 48.5059 19.076C49.0819 18.26 49.7059 17.564 50.3779 16.988C51.0739 16.388 51.7699 16.076 52.4659 16.052C52.6339 16.052 52.7659 16.064 52.8619 16.088C52.3339 16.208 51.8179 16.46 51.3139 16.844C50.8099 17.228 50.3419 17.684 49.9099 18.212C49.4779 18.716 49.0819 19.244 48.7219 19.796C48.3619 20.348 48.0619 20.84 47.8219 21.272C47.7259 21.464 47.6059 21.704 47.4619 21.992C47.3419 22.256 47.2219 22.544 47.1019 22.856C47.0059 23.144 46.9219 23.432 46.8499 23.72C46.7779 24.008 46.7419 24.26 46.7419 24.476C46.7419 24.524 46.7419 24.56 46.7419 24.584C46.7659 24.608 46.7779 24.644 46.7779 24.692C46.8019 24.332 46.9219 23.888 47.1379 23.36C47.3539 22.808 47.6179 22.232 47.9299 21.632C48.2659 21.008 48.6379 20.384 49.0459 19.76C49.4779 19.136 49.9219 18.572 50.3779 18.068C50.8339 17.564 51.2899 17.156 51.7459 16.844C52.2259 16.508 52.6699 16.328 53.0779 16.304C53.5099 16.28 53.8339 16.412 54.0499 16.7C54.2899 16.964 54.4219 17.3 54.4459 17.708C54.4699 17.852 54.4699 17.996 54.4459 18.14C54.4219 18.284 54.3979 18.416 54.3739 18.536H54.6979C54.7699 18.536 54.8539 18.536 54.9499 18.536C55.0459 18.512 55.1539 18.5 55.2739 18.5C55.4659 18.5 55.6339 18.536 55.7779 18.608C55.9219 18.68 56.0059 18.824 56.0299 19.04C56.0539 19.16 56.0539 19.28 56.0299 19.4C56.0059 19.496 55.9819 19.604 55.9579 19.724C55.7659 20.756 55.5979 21.86 55.4539 23.036C55.3099 24.212 55.2619 25.316 55.3099 26.348C55.3099 26.492 55.3219 26.684 55.3459 26.924C55.3699 27.14 55.4179 27.356 55.4899 27.572C55.5619 27.788 55.6579 27.968 55.7779 28.112C55.9219 28.256 56.1019 28.328 56.3179 28.328C56.4139 28.328 56.4859 28.316 56.5339 28.292C56.2939 28.46 56.0659 28.544 55.8499 28.544C55.5139 28.544 55.2379 28.46 55.0219 28.292C54.8299 28.1 54.6739 27.872 54.5539 27.608C54.4579 27.344 54.3859 27.056 54.3379 26.744C54.2899 26.432 54.2659 26.144 54.2659 25.88C54.2179 24.92 54.2779 23.876 54.4459 22.748C54.6379 21.62 54.8539 20.588 55.0939 19.652C54.9499 20.108 54.8059 20.624 54.6619 21.2C54.5179 21.752 54.3859 22.328 54.2659 22.928C54.1459 23.504 54.0499 24.08 53.9779 24.656C53.9299 25.208 53.9179 25.724 53.9419 26.204C53.9419 26.444 53.9659 26.708 54.0139 26.996C54.0859 27.284 54.1819 27.548 54.3019 27.788C54.4459 28.028 54.6139 28.232 54.8059 28.4C55.0219 28.568 55.2739 28.652 55.5619 28.652C55.7539 28.628 55.9219 28.592 56.0659 28.544C56.2099 28.472 56.3539 28.412 56.4979 28.364C56.3539 28.556 56.1859 28.724 55.9939 28.868C55.8019 28.988 55.5739 29.06 55.3099 29.084H55.2019C54.7219 29.084 54.4099 28.988 54.2659 28.796C54.1219 28.58 53.9419 28.28 53.7259 27.896C53.6539 27.752 53.5099 27.668 53.2939 27.644C53.0779 27.62 52.8619 27.584 52.6459 27.536C52.4299 27.464 52.2259 27.368 52.0339 27.248C51.8659 27.104 51.7699 26.852 51.7459 26.492C51.6979 25.988 51.7699 25.4 51.9619 24.728C52.1779 24.056 52.3459 23.468 52.4659 22.964C52.3219 23.18 52.0819 23.552 51.7459 24.08C51.4339 24.608 51.0859 25.16 50.7019 25.736C50.3419 26.288 49.9819 26.78 49.6219 27.212C49.2619 27.644 48.9619 27.86 48.7219 27.86C48.5299 27.884 48.3859 27.836 48.2899 27.716C48.1939 27.596 48.0859 27.476 47.9659 27.356C47.8219 27.212 47.6659 27.104 47.4979 27.032C47.3539 26.936 47.1859 26.864 46.9939 26.816C46.8259 26.768 46.6459 26.72 46.4539 26.672C46.2859 26.6 46.1179 26.504 45.9499 26.384C45.7819 26.264 45.6619 26.096 45.5899 25.88C45.5179 25.664 45.4699 25.46 45.4459 25.268ZM53.6179 18.428C53.5939 18.236 53.5339 18.08 53.4379 17.96C53.3659 17.816 53.2219 17.744 53.0059 17.744C52.7179 17.744 52.4059 17.864 52.0699 18.104C51.7339 18.344 51.4099 18.644 51.0979 19.004C50.8099 19.34 50.5339 19.688 50.2699 20.048C50.0059 20.408 49.8019 20.708 49.6579 20.948C49.4899 21.188 49.3099 21.5 49.1179 21.884C48.9499 22.268 48.7819 22.676 48.6139 23.108C48.4699 23.516 48.3499 23.924 48.2539 24.332C48.1579 24.74 48.1219 25.088 48.1459 25.376C48.1459 25.472 48.1699 25.58 48.2179 25.7C48.2659 25.796 48.3499 25.844 48.4699 25.844C48.5899 25.82 48.6859 25.796 48.7579 25.772C48.8299 25.724 48.9259 25.664 49.0459 25.592C49.3099 25.376 49.6099 25.064 49.9459 24.656C50.3059 24.248 50.6539 23.816 50.9899 23.36C51.3259 22.904 51.6499 22.448 51.9619 21.992C52.2739 21.536 52.5259 21.164 52.7179 20.876C53.0539 20.42 53.2819 20.048 53.4019 19.76C53.5459 19.472 53.6179 19.028 53.6179 18.428ZM48.2179 26.348C48.0019 26.372 47.8219 26.324 47.6779 26.204C47.5579 26.06 47.4739 25.892 47.4259 25.7V25.808C47.4499 26 47.5579 26.18 47.7499 26.348C47.9419 26.516 48.1339 26.588 48.3259 26.564C48.6139 26.564 49.0099 26.3 49.5139 25.772C50.0179 25.244 50.5219 24.644 51.0259 23.972C51.5539 23.3 52.0219 22.628 52.4299 21.956C52.8619 21.284 53.1379 20.804 53.2579 20.516C53.0659 20.828 52.7659 21.308 52.3579 21.956C51.9499 22.58 51.4939 23.216 50.9899 23.864C50.5099 24.512 50.0179 25.088 49.5139 25.592C49.0099 26.072 48.5779 26.324 48.2179 26.348ZM55.0579 21.596C54.9379 22.268 54.8179 22.952 54.6979 23.648C54.6019 24.344 54.5779 25.028 54.6259 25.7C54.6259 25.844 54.6499 26.048 54.6979 26.312C54.7459 26.552 54.8059 26.804 54.8779 27.068C54.9499 27.332 55.0459 27.572 55.1659 27.788C55.2859 28.004 55.4299 28.136 55.5979 28.184C55.4539 28.112 55.3219 27.968 55.2019 27.752C55.1059 27.512 55.0219 27.272 54.9499 27.032C54.8779 26.768 54.8179 26.516 54.7699 26.276C54.7459 26.012 54.7339 25.808 54.7339 25.664C54.6859 24.992 54.6979 24.32 54.7699 23.648C54.8419 22.952 54.9379 22.268 55.0579 21.596ZM60.5027 28.472C60.3347 28.28 60.1907 28.016 60.0707 27.68C59.9747 27.32 59.8907 26.948 59.8187 26.564C59.7707 26.18 59.7347 25.808 59.7107 25.448C59.6867 25.064 59.6747 24.752 59.6747 24.512C59.6747 23.816 59.6987 23.12 59.7467 22.424C59.8187 21.704 59.8787 20.996 59.9267 20.3C59.8067 21.068 59.7107 21.848 59.6387 22.64C59.5667 23.432 59.5307 24.212 59.5307 24.98V25.988C59.5307 26.084 59.5547 26.276 59.6027 26.564C59.6507 26.852 59.7107 27.14 59.7827 27.428C59.8787 27.716 59.9867 27.968 60.1067 28.184C60.2267 28.4 60.3587 28.496 60.5027 28.472ZM58.9187 26.24C58.9427 26.432 58.9907 26.66 59.0627 26.924C59.1587 27.188 59.3027 27.368 59.4947 27.464C59.3987 27.344 59.3147 27.164 59.2427 26.924C59.1947 26.684 59.1467 26.42 59.0987 26.132C59.0747 25.844 59.0507 25.568 59.0267 25.304C59.0267 25.04 59.0267 24.836 59.0267 24.692C59.0267 24.356 59.0387 24.02 59.0627 23.684C59.0867 23.348 59.1227 23.012 59.1707 22.676C59.0507 23.108 58.9667 23.552 58.9187 24.008C58.8947 24.44 58.8827 24.884 58.8827 25.34C58.8827 25.484 58.8827 25.64 58.8827 25.808C58.9067 25.952 58.9307 26.096 58.9547 26.24H58.9187ZM61.5827 28.184C61.4387 28.184 61.3427 28.112 61.2947 27.968C61.1027 27.752 60.9467 27.452 60.8267 27.068C60.7307 26.684 60.6467 26.276 60.5747 25.844C60.5267 25.388 60.4907 24.956 60.4667 24.548C60.4667 24.116 60.4667 23.756 60.4667 23.468C60.4667 22.58 60.4907 21.704 60.5387 20.84C60.6107 19.976 60.6947 19.1 60.7907 18.212C60.5987 19.244 60.4427 20.276 60.3227 21.308C60.2267 22.316 60.1787 23.348 60.1787 24.404C60.1787 24.62 60.1787 24.932 60.1787 25.34C60.2027 25.748 60.2387 26.168 60.2867 26.6C60.3587 27.008 60.4427 27.392 60.5387 27.752C60.6587 28.112 60.8027 28.364 60.9707 28.508C60.8267 28.58 60.6707 28.616 60.5027 28.616C60.2867 28.616 60.1307 28.58 60.0347 28.508C59.9387 28.412 59.8667 28.316 59.8187 28.22C59.7707 28.124 59.6987 28.04 59.6027 27.968C59.5067 27.872 59.3507 27.824 59.1347 27.824H58.0547C58.0307 27.824 58.0067 27.836 57.9827 27.86C57.9827 27.86 57.9707 27.86 57.9467 27.86C57.7307 27.884 57.5387 27.824 57.3707 27.68C57.2267 27.512 57.1067 27.32 57.0107 27.104C56.9387 26.888 56.8787 26.672 56.8307 26.456C56.8067 26.216 56.7947 26.012 56.7947 25.844C56.7947 25.58 56.8067 25.316 56.8307 25.052C56.8787 24.764 56.9147 24.488 56.9387 24.224C56.9867 23.672 57.0467 23.12 57.1187 22.568C57.1907 21.992 57.2387 21.428 57.2627 20.876C57.2627 20.732 57.2747 20.588 57.2987 20.444C57.3467 20.276 57.3827 20.12 57.4067 19.976C57.4547 19.64 57.4907 19.316 57.5147 19.004C57.5627 18.668 57.5867 18.332 57.5867 17.996C57.5867 17.756 57.5627 17.492 57.5147 17.204C57.4667 16.892 57.3827 16.64 57.2627 16.448C57.4547 16.64 57.5747 16.928 57.6227 17.312C57.6707 17.696 57.6947 18.02 57.6947 18.284C57.6947 18.452 57.6827 18.608 57.6587 18.752C57.6587 18.896 57.6467 19.052 57.6227 19.22C57.5507 20.06 57.4547 20.912 57.3347 21.776C57.2387 22.64 57.1667 23.492 57.1187 24.332L57.1547 24.26C57.2507 23.18 57.4067 22.112 57.6227 21.056C57.8387 19.976 57.9467 18.884 57.9467 17.78C57.9467 17.708 57.9467 17.6 57.9467 17.456C57.9467 17.288 57.9347 17.132 57.9107 16.988C57.8867 16.82 57.8507 16.676 57.8027 16.556C57.7547 16.412 57.6827 16.34 57.5867 16.34C57.8747 16.22 58.1627 16.124 58.4507 16.052C58.7387 15.98 59.0387 15.932 59.3507 15.908V15.872C59.4227 15.848 59.4947 15.836 59.5667 15.836C59.6627 15.836 59.7467 15.836 59.8187 15.836C60.3707 15.836 60.7427 15.932 60.9347 16.124C61.1267 16.292 61.2227 16.652 61.2227 17.204C61.2227 17.588 61.1987 17.96 61.1507 18.32C61.1267 18.68 61.0907 19.052 61.0427 19.436C60.9467 20.084 60.8747 20.744 60.8267 21.416C60.7787 22.064 60.7547 22.712 60.7547 23.36C60.7547 23.624 60.7667 23.996 60.7907 24.476C60.8147 24.932 60.8507 25.412 60.8987 25.916C60.9707 26.396 61.0547 26.852 61.1507 27.284C61.2707 27.692 61.4267 27.992 61.6187 28.184H61.5827ZM60.5027 8.744C60.7907 8.744 61.0307 8.828 61.2227 8.996C61.4147 9.14 61.5587 9.332 61.6547 9.572C61.7747 9.788 61.8467 10.04 61.8707 10.328C61.9187 10.592 61.9427 10.844 61.9427 11.084C61.9427 11.468 61.8947 11.864 61.7987 12.272C61.7027 12.656 61.5587 13.016 61.3667 13.352C61.1747 13.664 60.9107 13.928 60.5747 14.144C60.2627 14.36 59.8787 14.468 59.4227 14.468C58.8947 14.468 58.4507 14.3 58.0907 13.964C57.7547 13.604 57.5867 13.16 57.5867 12.632C57.5867 12.128 57.6827 11.576 57.8747 10.976C58.0907 10.376 58.3187 9.86 58.5587 9.428C58.8947 9.284 59.2667 9.212 59.6747 9.212C59.9147 9.212 60.1547 9.248 60.3947 9.32C60.8747 9.44 61.1747 9.632 61.2947 9.896C61.4147 10.16 61.4747 10.532 61.4747 11.012C61.4747 11.444 61.4027 11.9 61.2587 12.38C61.1387 12.86 60.9827 13.292 60.7907 13.676C61.0787 13.268 61.2947 12.812 61.4387 12.308C61.5827 11.804 61.6547 11.3 61.6547 10.796C61.6547 10.436 61.5587 10.04 61.3667 9.608C61.1747 9.152 60.8867 8.864 60.5027 8.744ZM60.3947 13.784C60.0347 13.904 59.6987 13.964 59.3867 13.964C58.5707 13.964 58.1627 13.532 58.1627 12.668C58.1627 12.26 58.1987 11.852 58.2707 11.444C58.3427 11.012 58.4387 10.592 58.5587 10.184C58.4387 10.544 58.3067 10.976 58.1627 11.48C58.0187 11.984 57.9467 12.428 57.9467 12.812C57.9467 13.196 58.0787 13.532 58.3427 13.82C58.6067 14.084 58.9427 14.216 59.3507 14.216C59.5187 14.216 59.7107 14.18 59.9267 14.108C60.1667 14.036 60.3227 13.928 60.3947 13.784ZM71.3896 20.696C71.2216 20.792 71.0656 20.876 70.9216 20.948C70.8016 20.996 70.6456 21.02 70.4536 21.02C70.0696 21.02 69.7336 20.9 69.4456 20.66C69.1576 20.42 68.9176 20.132 68.7256 19.796C68.5336 19.436 68.3776 19.064 68.2576 18.68C68.1616 18.272 68.1016 17.912 68.0776 17.6C67.3576 18.512 66.8296 19.544 66.4936 20.696C66.1576 21.848 65.9896 23 65.9896 24.152C65.9896 24.344 66.0016 24.608 66.0256 24.944C66.0736 25.28 66.1216 25.628 66.1696 25.988C66.2416 26.348 66.3256 26.684 66.4216 26.996C66.5416 27.284 66.6736 27.5 66.8176 27.644C66.5296 27.596 66.3136 27.368 66.1696 26.96C66.0256 26.552 65.9176 26.084 65.8456 25.556C65.7736 25.028 65.7256 24.512 65.7016 24.008C65.7016 23.504 65.7016 23.144 65.7016 22.928C65.7016 22.04 65.7136 21.164 65.7376 20.3C65.7856 19.412 65.8696 18.536 65.9896 17.672C65.8216 18.704 65.6776 19.736 65.5576 20.768C65.4616 21.776 65.4136 22.808 65.4136 23.864C65.4136 24.08 65.4136 24.392 65.4136 24.8C65.4376 25.208 65.4736 25.628 65.5216 26.06C65.5696 26.468 65.6416 26.852 65.7376 27.212C65.8576 27.572 66.0016 27.824 66.1696 27.968C66.0256 28.04 65.8696 28.076 65.7016 28.076C65.4856 28.076 65.3296 28.04 65.2336 27.968C65.1376 27.872 65.0536 27.776 64.9816 27.68C64.9336 27.584 64.8616 27.5 64.7656 27.428C64.6936 27.332 64.5376 27.284 64.2976 27.284H63.1456C62.9056 27.284 62.7136 27.212 62.5696 27.068C62.4256 26.924 62.3056 26.744 62.2096 26.528C62.1376 26.312 62.0896 26.084 62.0656 25.844C62.0176 25.604 61.9936 25.4 61.9936 25.232C61.9936 24.392 62.0536 23.564 62.1736 22.748C62.3176 21.932 62.4256 21.116 62.4976 20.3C62.5456 19.82 62.6056 19.352 62.6776 18.896C62.7496 18.416 62.7856 17.936 62.7856 17.456C62.7856 17.24 62.7736 17.012 62.7496 16.772C62.7256 16.532 62.6776 16.316 62.6056 16.124C62.7016 16.34 62.7616 16.592 62.7856 16.88C62.8336 17.168 62.8576 17.432 62.8576 17.672C62.8576 18.704 62.7856 19.736 62.6416 20.768C62.4976 21.776 62.3776 22.784 62.2816 23.792L62.3536 23.72C62.4256 23.096 62.4976 22.484 62.5696 21.884C62.6656 21.26 62.7616 20.636 62.8576 20.012C62.9296 19.532 63.0016 19.076 63.0736 18.644C63.1456 18.188 63.1816 17.72 63.1816 17.24C63.1816 17.168 63.1816 17.048 63.1816 16.88C63.1816 16.712 63.1696 16.556 63.1456 16.412C63.1216 16.244 63.0736 16.1 63.0016 15.98C62.9536 15.836 62.8816 15.764 62.7856 15.764C63.1456 15.644 63.5056 15.536 63.8656 15.44C64.2496 15.344 64.6336 15.296 65.0176 15.296C65.5696 15.296 65.9416 15.392 66.1336 15.584C66.3256 15.752 66.4216 16.112 66.4216 16.664C66.4216 17 66.4096 17.324 66.3856 17.636C66.3616 17.948 66.3256 18.272 66.2776 18.608C66.3496 18.392 66.4816 18.14 66.6736 17.852C66.8896 17.564 67.1056 17.288 67.3216 17.024C67.5616 16.736 67.7656 16.484 67.9336 16.268C68.1256 16.052 68.2336 15.908 68.2576 15.836C68.3056 15.644 68.3536 15.464 68.4016 15.296C68.4496 15.128 68.5216 14.948 68.6176 14.756C68.6416 14.756 68.6536 14.792 68.6536 14.864C68.6536 15.128 68.6056 15.392 68.5096 15.656C68.4376 15.92 68.4016 16.196 68.4016 16.484C68.4016 16.556 68.4136 16.604 68.4376 16.628C68.4376 16.652 68.4376 16.664 68.4376 16.664C68.4376 16.592 68.4496 16.472 68.4736 16.304C68.4976 16.112 68.5336 15.92 68.5816 15.728C68.6296 15.512 68.6776 15.32 68.7256 15.152C68.7736 14.96 68.8096 14.84 68.8336 14.792C68.9056 14.696 69.0256 14.648 69.1936 14.648H69.3016C69.3016 14.72 69.2656 14.888 69.1936 15.152C69.1216 15.416 69.0736 15.596 69.0496 15.692C68.8576 16.46 68.7616 17.18 68.7616 17.852C68.7616 17.996 68.7736 18.188 68.7976 18.428C68.8456 18.668 68.9056 18.92 68.9776 19.184C69.0496 19.424 69.1456 19.652 69.2656 19.868C69.3856 20.06 69.5176 20.192 69.6616 20.264C69.5656 20.192 69.4696 20.036 69.3736 19.796C69.3016 19.556 69.2296 19.292 69.1576 19.004C69.1096 18.716 69.0616 18.44 69.0136 18.176C68.9896 17.888 68.9776 17.684 68.9776 17.564C68.9776 17.468 68.9896 17.264 69.0136 16.952C69.0616 16.64 69.1216 16.316 69.1936 15.98C69.2656 15.62 69.3376 15.308 69.4096 15.044C69.5056 14.78 69.5896 14.648 69.6616 14.648C69.7096 14.648 69.7936 14.684 69.9136 14.756C70.0576 14.804 70.1896 14.864 70.3096 14.936C70.4536 15.008 70.5736 15.092 70.6696 15.188C70.7656 15.26 70.8136 15.32 70.8136 15.368C70.8136 15.464 70.7656 15.644 70.6696 15.908C70.5976 16.148 70.5376 16.328 70.4896 16.448C70.2976 17.144 70.2016 17.792 70.2016 18.392C70.2016 18.8 70.2496 19.196 70.3456 19.58C70.4416 19.964 70.6936 20.252 71.1016 20.444H71.3896V20.696ZM65.7376 27.86C65.5696 27.668 65.4256 27.404 65.3056 27.068C65.2096 26.708 65.1256 26.336 65.0536 25.952C65.0056 25.568 64.9696 25.196 64.9456 24.836C64.9216 24.452 64.9096 24.14 64.9096 23.9C64.9096 22.532 64.9816 21.164 65.1256 19.796C65.0056 20.564 64.9096 21.332 64.8376 22.1C64.7896 22.844 64.7656 23.6 64.7656 24.368C64.7656 24.608 64.7656 24.896 64.7656 25.232C64.7896 25.544 64.8256 25.868 64.8736 26.204C64.9216 26.516 64.9936 26.816 65.0896 27.104C65.1856 27.392 65.3296 27.632 65.5216 27.824C65.5456 27.824 65.5816 27.836 65.6296 27.86C65.6776 27.86 65.7136 27.86 65.7376 27.86ZM64.1536 25.664C64.1776 25.856 64.2256 26.084 64.2976 26.348C64.3936 26.588 64.5376 26.756 64.7296 26.852C64.6336 26.732 64.5496 26.552 64.4776 26.312C64.4296 26.072 64.3816 25.808 64.3336 25.52C64.3096 25.232 64.2856 24.956 64.2616 24.692C64.2616 24.428 64.2616 24.224 64.2616 24.08C64.2616 23.744 64.2736 23.42 64.2976 23.108C64.3216 22.772 64.3576 22.436 64.4056 22.1C64.3096 22.532 64.2376 22.976 64.1896 23.432C64.1656 23.864 64.1536 24.296 64.1536 24.728C64.1536 24.896 64.1536 25.052 64.1536 25.196C64.1536 25.34 64.1656 25.496 64.1896 25.664H64.1536ZM62.6056 16.088C62.6056 16.04 62.5816 15.992 62.5336 15.944C62.5816 15.992 62.6056 16.04 62.6056 16.088ZM82.9219 28.364C82.7539 28.172 82.6099 27.908 82.4899 27.572C82.3939 27.212 82.3099 26.84 82.2379 26.456C82.1659 26.072 82.1179 25.7 82.0939 25.34C82.0699 24.956 82.0579 24.632 82.0579 24.368C82.0579 23.672 82.0819 22.976 82.1299 22.28C82.1779 21.56 82.2379 20.852 82.3099 20.156C82.1899 20.924 82.0939 21.704 82.0219 22.496C81.9499 23.288 81.9139 24.08 81.9139 24.872C81.9139 25.016 81.9259 25.28 81.9499 25.664C81.9739 26.048 82.0219 26.444 82.0939 26.852C82.1659 27.236 82.2619 27.584 82.3819 27.896C82.5259 28.208 82.7059 28.364 82.9219 28.364ZM81.3019 26.132C81.3019 26.324 81.3499 26.552 81.4459 26.816C81.5659 27.056 81.6979 27.236 81.8419 27.356C81.7459 27.236 81.6739 27.056 81.6259 26.816C81.5779 26.552 81.5419 26.288 81.5179 26.024C81.4939 25.76 81.4699 25.496 81.4459 25.232C81.4459 24.968 81.4459 24.752 81.4459 24.584C81.4459 24.248 81.4459 23.912 81.4459 23.576C81.4699 23.24 81.5059 22.904 81.5539 22.568C81.3859 23.384 81.3019 24.272 81.3019 25.232V26.132ZM83.2459 21.956C83.2219 22.172 83.2099 22.388 83.2099 22.604C83.2099 22.82 83.2099 23.036 83.2099 23.252C83.2099 23.516 83.2219 23.888 83.2459 24.368C83.2699 24.824 83.3059 25.304 83.3539 25.808C83.4259 26.288 83.5099 26.744 83.6059 27.176C83.7259 27.584 83.8819 27.884 84.0739 28.076C83.8099 28.028 83.5939 27.8 83.4259 27.392C83.2819 26.96 83.1739 26.48 83.1019 25.952C83.0299 25.424 82.9819 24.908 82.9579 24.404C82.9339 23.9 82.9219 23.54 82.9219 23.324C82.9219 22.436 82.9459 21.56 82.9939 20.696C83.0659 19.832 83.1499 18.956 83.2459 18.068C83.0779 19.124 82.9339 20.168 82.8139 21.2C82.7179 22.232 82.6699 23.276 82.6699 24.332C82.6699 24.548 82.6699 24.86 82.6699 25.268C82.6939 25.676 82.7299 26.096 82.7779 26.528C82.8499 26.936 82.9339 27.32 83.0299 27.68C83.1499 28.016 83.2939 28.256 83.4619 28.4C83.3659 28.424 83.2699 28.448 83.1739 28.472C83.1019 28.496 83.0179 28.508 82.9219 28.508C82.7059 28.508 82.5619 28.472 82.4899 28.4C82.4179 28.304 82.3459 28.208 82.2739 28.112C82.2259 27.992 82.1539 27.896 82.0579 27.824C81.9859 27.728 81.8299 27.68 81.5899 27.68C81.3979 27.68 81.2179 27.692 81.0499 27.716C80.9059 27.716 80.7379 27.716 80.5459 27.716C80.0179 27.716 79.6699 27.5 79.5019 27.068C79.3579 26.612 79.2859 26.168 79.2859 25.736C79.2859 25.208 79.3099 24.692 79.3579 24.188C79.4059 23.66 79.4659 23.132 79.5379 22.604C79.2259 23.924 78.8659 25.268 78.4579 26.636C78.3859 26.876 78.2779 27.152 78.1339 27.464C78.0139 27.752 77.8579 28.04 77.6659 28.328C77.4979 28.592 77.2819 28.82 77.0179 29.012C76.7779 29.18 76.5139 29.264 76.2259 29.264C76.1059 29.264 75.9979 29.252 75.9019 29.228C75.8299 29.204 75.7339 29.168 75.6139 29.12C75.2779 28.976 75.0499 28.832 74.9299 28.688C74.8099 28.52 74.6899 28.352 74.5699 28.184C74.4739 28.016 74.3179 27.86 74.1019 27.716C73.9099 27.548 73.5619 27.392 73.0579 27.248C72.7939 27.176 72.5779 27.032 72.4099 26.816C72.2659 26.6 72.1579 26.348 72.0859 26.06C72.0139 25.772 71.9659 25.484 71.9419 25.196C71.9179 24.884 71.9059 24.62 71.9059 24.404C71.9059 23.468 72.0019 22.484 72.1939 21.452H72.2299C72.2779 20.852 72.3499 20.264 72.4459 19.688C72.5419 19.088 72.5899 18.476 72.5899 17.852C72.5899 17.588 72.5659 17.312 72.5179 17.024C72.4939 16.712 72.4099 16.448 72.2659 16.232C72.4339 16.424 72.5419 16.712 72.5899 17.096C72.6619 17.456 72.6979 17.768 72.6979 18.032C72.6979 18.152 72.6859 18.404 72.6619 18.788C72.6379 19.148 72.6019 19.532 72.5539 19.94C72.5059 20.348 72.4579 20.72 72.4099 21.056C72.3859 21.392 72.3499 21.596 72.3019 21.668C72.2299 22.124 72.1819 22.58 72.1579 23.036C72.1339 23.468 72.1219 23.912 72.1219 24.368C72.1219 24.44 72.1219 24.56 72.1219 24.728C72.1459 24.896 72.1699 25.076 72.1939 25.268C72.2179 25.46 72.2539 25.628 72.3019 25.772C72.3499 25.916 72.3979 26 72.4459 26.024C72.3499 25.712 72.2899 25.4 72.2659 25.088C72.2419 24.776 72.2299 24.452 72.2299 24.116C72.2299 22.988 72.3499 21.884 72.5899 20.804C72.8299 19.7 72.9499 18.584 72.9499 17.456C72.9499 17.336 72.9379 17.192 72.9139 17.024C72.8899 16.832 72.8539 16.664 72.8059 16.52C72.7579 16.352 72.6739 16.22 72.5539 16.124C72.4579 16.004 72.3259 15.944 72.1579 15.944C71.9899 15.944 71.8699 16.004 71.7979 16.124V16.052C71.7979 15.86 71.8699 15.728 72.0139 15.656C72.1339 15.56 72.2779 15.512 72.4459 15.512C72.6379 15.512 72.8179 15.548 72.9859 15.62C73.1779 15.692 73.3699 15.728 73.5619 15.728C73.8259 15.728 74.0899 15.704 74.3539 15.656C74.6179 15.584 74.8819 15.548 75.1459 15.548C75.5539 15.548 75.8299 15.632 75.9739 15.8C76.1419 15.968 76.2259 16.256 76.2259 16.664C76.2259 16.784 76.2139 16.892 76.1899 16.988C76.1899 17.084 76.1899 17.192 76.1899 17.312C76.1179 18.32 76.0099 19.328 75.8659 20.336C75.7459 21.344 75.6859 22.352 75.6859 23.36C75.6859 23.576 75.6979 23.84 75.7219 24.152C75.7699 24.44 75.8299 24.74 75.9019 25.052C75.9739 25.364 76.0699 25.652 76.1899 25.916C76.3099 26.18 76.4539 26.384 76.6219 26.528C76.5739 26.648 76.5259 26.768 76.4779 26.888C76.4299 26.984 76.3699 27.092 76.2979 27.212C75.9859 26.876 75.7459 26.408 75.5779 25.808C75.4099 25.208 75.2899 24.572 75.2179 23.9C75.1459 23.228 75.0979 22.568 75.0739 21.92C75.0739 21.272 75.0739 20.72 75.0739 20.264C75.0499 20.576 75.0379 20.876 75.0379 21.164C75.0379 21.452 75.0379 21.752 75.0379 22.064C75.0379 22.424 75.0499 22.856 75.0739 23.36C75.0979 23.864 75.1459 24.368 75.2179 24.872C75.2899 25.376 75.3979 25.856 75.5419 26.312C75.7099 26.744 75.9259 27.092 76.1899 27.356C76.0939 27.5 75.9619 27.572 75.7939 27.572C75.6499 27.572 75.5059 27.476 75.3619 27.284C75.2179 27.092 75.0859 26.864 74.9659 26.6C74.8699 26.336 74.7859 26.072 74.7139 25.808C74.6419 25.544 74.5819 25.352 74.5339 25.232C74.4139 24.752 74.3419 24.272 74.3179 23.792C74.2939 23.288 74.2819 22.796 74.2819 22.316C74.2819 21.548 74.3059 20.768 74.3539 19.976C74.4259 19.184 74.4979 18.404 74.5699 17.636C74.4259 18.572 74.2939 19.508 74.1739 20.444C74.0779 21.38 74.0299 22.328 74.0299 23.288C74.0299 23.624 74.0419 23.96 74.0659 24.296C74.1139 24.632 74.1619 24.968 74.2099 25.304C74.2339 25.448 74.2939 25.676 74.3899 25.988C74.5099 26.276 74.6419 26.576 74.7859 26.888C74.9299 27.176 75.0979 27.44 75.2899 27.68C75.4819 27.896 75.6619 28.004 75.8299 28.004C76.0459 28.004 76.2739 27.812 76.5139 27.428C76.7539 27.044 76.9939 26.564 77.2339 25.988C77.4979 25.388 77.7499 24.728 77.9899 24.008C78.2299 23.288 78.4459 22.604 78.6379 21.956C78.8299 21.284 78.9979 20.696 79.1419 20.192C79.2859 19.664 79.3819 19.292 79.4299 19.076C79.4539 19.004 79.5139 18.812 79.6099 18.5C79.7059 18.164 79.8019 17.816 79.8979 17.456C80.0179 17.096 80.1259 16.772 80.2219 16.484C80.3179 16.196 80.3779 16.04 80.4019 16.016C80.5699 15.968 80.7859 15.92 81.0499 15.872C81.3379 15.8 81.5659 15.764 81.7339 15.764V15.728H82.2019C82.7299 15.728 83.0899 15.812 83.2819 15.98C83.4979 16.148 83.6059 16.508 83.6059 17.06C83.6059 17.876 83.5459 18.692 83.4259 19.508C83.3299 20.324 83.2579 21.14 83.2099 21.956H83.2459Z" fill="black"/>
</svg>
